<svg version="1.1" id="Layer_1" xmlns="http://www.w3.org/2000/svg" xmlns:xlink="http://www.w3.org/1999/xlink" x="0px" y="0px"
	 width="100%" viewBox="0 0 579 598" enable-background="new 0 0 579 598" xml:space="preserve">
<path fill="#000000" opacity="1.000000" stroke="none" 
	d="
M1.000000,215.000000 
	C1.000000,143.333359 1.000000,72.166710 1.000000,1.000048 
	C193.999924,1.000032 386.999847,1.000032 579.999817,1.000016 
	C579.999878,200.333191 579.999878,399.666382 579.999939,598.999634 
	C387.000183,598.999756 194.000397,598.999756 1.000293,598.999878 
	C1.000000,471.166656 1.000000,343.333344 1.000000,215.000000 
M217.010422,53.435558 
	C217.010422,53.435558 216.952621,53.893421 216.219269,54.232735 
	C215.481140,54.487915 214.731644,54.991966 214.006683,54.958847 
	C208.274689,54.696983 202.527100,53.890652 196.825577,54.151989 
	C192.879822,54.332859 191.421753,52.429535 190.101349,49.479195 
	C184.737747,37.494724 179.353287,25.519299 173.884430,13.582726 
	C173.418350,12.565412 172.371567,11.273451 171.424805,11.113450 
	C167.888107,10.515754 164.282455,10.069184 160.699539,10.045882 
	C144.539352,9.940780 128.377960,9.971232 112.217445,10.046955 
	C110.690765,10.054110 109.167152,10.717742 107.642113,11.076590 
	C108.081604,12.862994 108.143105,14.870282 109.033165,16.393393 
	C111.470230,20.563852 114.438278,24.424118 116.873680,28.595440 
	C131.293793,53.294044 145.898682,77.892387 159.799866,102.881355 
	C163.576767,109.670753 167.528351,112.282356 175.520416,112.220154 
	C229.664398,111.798660 283.813232,112.000015 337.960480,112.000015 
	C365.617218,112.000015 393.274292,112.051270 420.930115,111.893311 
	C422.934082,111.881859 425.858612,110.923767 426.781708,109.432106 
	C434.132385,97.553749 441.041504,85.403450 448.204254,73.407143 
	C458.259247,56.566860 468.477509,39.823776 478.479309,22.952179 
	C480.568909,19.427292 482.020111,15.523927 483.765503,11.794983 
	C483.347198,11.196651 482.928894,10.598318 482.510590,9.999986 
	C470.276550,9.999986 458.040955,9.880161 445.809113,10.042871 
	C437.892609,10.148175 429.976593,10.992712 422.070221,10.870166 
	C417.752045,10.803236 415.548309,12.257406 413.918488,16.146868 
	C408.409760,29.293196 402.713623,42.364738 396.799469,55.332783 
	C396.057129,56.960514 393.714050,58.537567 391.888275,58.857441 
	C387.397461,59.644222 382.743927,59.453625 378.214783,60.081570 
	C372.078674,60.932323 371.004395,60.241238 371.001801,54.323055 
	C370.996033,40.994499 371.032562,27.665798 370.971405,14.337523 
	C370.959717,11.792941 371.244354,8.952069 367.170471,8.969050 
	C349.677063,9.041970 332.182983,9.037702 314.689575,8.962921 
	C311.824493,8.950673 310.718536,10.125319 311.000275,12.856288 
	C311.335327,16.104223 311.994629,19.357563 311.939758,22.598846 
	C311.822571,29.518583 311.227844,36.429031 311.033295,43.349037 
	C310.870972,49.123257 311.000000,54.905663 311.000000,60.767166 
	C298.797119,60.767166 287.061493,60.767166 274.999878,60.767166 
	C274.999878,46.411655 274.784729,32.281479 275.118011,18.164248 
	C275.232697,13.306454 273.592407,11.883647 268.994904,11.935074 
	C253.668991,12.106512 238.339859,11.977815 223.012268,12.038436 
	C221.659531,12.043786 220.308945,12.590038 218.135117,13.004706 
	C217.813370,15.002537 217.491623,17.000366 217.012665,19.924061 
	C217.064255,30.949903 217.115829,41.975746 217.010422,53.435558 
M202.968719,453.360992 
	C206.932526,448.784241 210.687057,444.000763 214.933060,439.702820 
	C217.802368,436.798401 219.080002,433.837006 219.074890,429.708221 
	C218.974289,348.378082 219.000000,267.047821 219.000000,185.717560 
	C219.000000,183.932205 219.000000,182.146851 219.000000,180.214447 
	C267.494598,180.214447 315.565063,180.214447 364.000000,180.214447 
	C364.000000,182.215851 364.000000,184.008667 364.000000,185.801483 
	C364.000000,266.631744 364.024048,347.462067 363.940613,428.292236 
	C363.935547,433.180145 365.233124,436.969086 368.845856,440.466949 
	C380.218964,451.478455 391.354309,462.737976 402.473877,474.007874 
	C408.304016,479.916779 413.787201,486.171143 419.691833,492.001373 
	C421.401794,493.689789 424.028778,494.449463 426.720306,495.895386 
	C426.720306,368.728485 426.720306,242.981033 426.720306,117.280548 
	C337.704132,117.280548 248.967926,117.280548 160.463196,117.280548 
	C160.463196,245.355438 160.463196,373.149353 160.463196,501.536591 
	C174.827652,485.300323 188.693680,469.627472 202.968719,453.360992 
z"/>
<path fill="#FFFFFF" opacity="1.000000" stroke="none" 
	d="
M202.764206,453.657806 
	C188.693680,469.627472 174.827652,485.300323 160.463196,501.536591 
	C160.463196,373.149353 160.463196,245.355438 160.463196,117.280548 
	C248.967926,117.280548 337.704132,117.280548 426.720306,117.280548 
	C426.720306,242.981033 426.720306,368.728485 426.720306,495.895386 
	C424.028778,494.449463 421.401794,493.689789 419.691833,492.001373 
	C413.787201,486.171143 408.304016,479.916779 402.473877,474.007874 
	C391.354309,462.737976 380.218964,451.478455 368.845856,440.466949 
	C365.233124,436.969086 363.935547,433.180145 363.940613,428.292236 
	C364.024048,347.462067 364.000000,266.631744 364.000000,185.801483 
	C364.000000,184.008667 364.000000,182.215851 364.000000,180.214447 
	C315.565063,180.214447 267.494598,180.214447 219.000000,180.214447 
	C219.000000,182.146851 219.000000,183.932205 219.000000,185.717560 
	C219.000000,267.047821 218.974289,348.378082 219.074890,429.708221 
	C219.080002,433.837006 217.802368,436.798401 214.933060,439.702820 
	C210.687057,444.000763 206.932526,448.784241 202.764206,453.657806 
z"/>
<path fill="#FFFFFF" opacity="1.000000" stroke="none" 
	d="
M218.957352,12.885061 
	C220.308945,12.590038 221.659531,12.043786 223.012268,12.038436 
	C238.339859,11.977815 253.668991,12.106512 268.994904,11.935074 
	C273.592407,11.883647 275.232697,13.306454 275.118011,18.164248 
	C274.784729,32.281479 274.999878,46.411655 274.999878,60.767166 
	C287.061493,60.767166 298.797119,60.767166 311.000000,60.767166 
	C311.000000,54.905663 310.870972,49.123257 311.033295,43.349037 
	C311.227844,36.429031 311.822571,29.518583 311.939758,22.598846 
	C311.994629,19.357563 311.335327,16.104223 311.000275,12.856288 
	C310.718536,10.125319 311.824493,8.950673 314.689575,8.962921 
	C332.182983,9.037702 349.677063,9.041970 367.170471,8.969050 
	C371.244354,8.952069 370.959717,11.792941 370.971405,14.337523 
	C371.032562,27.665798 370.996033,40.994499 371.001801,54.323055 
	C371.004395,60.241238 372.078674,60.932323 378.214783,60.081570 
	C382.743927,59.453625 387.397461,59.644222 391.888275,58.857441 
	C393.714050,58.537567 396.057129,56.960514 396.799469,55.332783 
	C402.713623,42.364738 408.409760,29.293196 413.918488,16.146868 
	C415.548309,12.257406 417.752045,10.803236 422.070221,10.870166 
	C429.976593,10.992712 437.892609,10.148175 445.809113,10.042871 
	C458.040955,9.880161 470.276550,9.999986 482.510590,9.999986 
	C482.928894,10.598318 483.347198,11.196651 483.765503,11.794983 
	C482.020111,15.523927 480.568909,19.427292 478.479309,22.952179 
	C468.477509,39.823776 458.259247,56.566860 448.204254,73.407143 
	C441.041504,85.403450 434.132385,97.553749 426.781708,109.432106 
	C425.858612,110.923767 422.934082,111.881859 420.930115,111.893311 
	C393.274292,112.051270 365.617218,112.000015 337.960480,112.000015 
	C283.813232,112.000015 229.664398,111.798660 175.520416,112.220154 
	C167.528351,112.282356 163.576767,109.670753 159.799866,102.881355 
	C145.898682,77.892387 131.293793,53.294044 116.873680,28.595440 
	C114.438278,24.424118 111.470230,20.563852 109.033165,16.393393 
	C108.143105,14.870282 108.081604,12.862994 107.642120,11.076590 
	C109.167152,10.717742 110.690765,10.054110 112.217445,10.046955 
	C128.377960,9.971232 144.539352,9.940780 160.699539,10.045882 
	C164.282455,10.069184 167.888107,10.515754 171.424805,11.113450 
	C172.371567,11.273451 173.418350,12.565412 173.884430,13.582726 
	C179.353287,25.519299 184.737747,37.494724 190.101349,49.479195 
	C191.421753,52.429535 192.879822,54.332859 196.825577,54.151989 
	C202.527100,53.890652 208.274689,54.696983 214.006683,54.958847 
	C214.731644,54.991966 215.481140,54.487915 216.749466,54.306702 
	C217.853104,53.920399 218.426559,53.460121 219.000000,52.749924 
	C219.000000,52.500000 219.000000,52.000153 219.396774,51.909554 
	C220.195679,50.320568 220.919434,48.827694 220.945206,47.322865 
	C221.067657,40.172001 221.239014,33.006901 220.911194,25.868996 
	C220.711472,21.520279 219.638229,17.211679 218.957352,12.885061 
z"/>
<path fill="#FEFEFE" opacity="1.000000" stroke="none" 
	d="
M218.546234,12.944883 
	C219.638229,17.211679 220.711472,21.520279 220.911194,25.868996 
	C221.239014,33.006901 221.067657,40.172001 220.945206,47.322865 
	C220.919434,48.827694 220.195679,50.320568 219.396774,51.440876 
	C218.999985,41.855045 219.081207,32.645847 218.917953,23.440989 
	C218.891510,21.950195 217.779892,20.478645 217.169861,18.998199 
	C217.491623,17.000366 217.813370,15.002537 218.546234,12.944883 
z"/>
<path fill="#FCFCFC" opacity="1.000000" stroke="none" 
	d="
M217.091263,19.461130 
	C217.779892,20.478645 218.891510,21.950195 218.917953,23.440989 
	C219.081207,32.645847 218.999985,41.855045 219.000000,51.531479 
	C219.000000,52.000153 219.000000,52.500000 218.694565,52.750053 
	C217.981888,53.000599 217.574646,53.001095 217.167404,53.001587 
	C217.115829,41.975746 217.064255,30.949903 217.091263,19.461130 
z"/>
<path fill="#FEFEFE" opacity="1.000000" stroke="none" 
	d="
M217.088913,53.218575 
	C217.574646,53.001095 217.981888,53.000599 218.694565,52.999973 
	C218.426559,53.460121 217.853104,53.920399 217.116150,54.137047 
	C216.952621,53.893421 217.010422,53.435558 217.088913,53.218575 
z"/>
</svg>